<svg width="61" height="77" viewBox="0 0 61 77" fill="none" xmlns="http://www.w3.org/2000/svg">
<path fill-rule="evenodd" clip-rule="evenodd" d="M0.166504 32.8124C0.166504 15.2646 13.5056 0.583252 30.4998 0.583252C47.4941 0.583252 60.8332 15.2646 60.8332 32.8124C60.8332 49.0332 49.4354 62.8045 34.2915 64.7951V72.6249C34.2915 73.6305 33.892 74.595 33.181 75.306C32.4699 76.0171 31.5054 76.4166 30.4998 76.4166C29.4942 76.4166 28.5298 76.0171 27.8187 75.306C27.1076 74.595 26.7082 73.6305 26.7082 72.6249V64.7951C11.5643 62.8045 0.166504 49.0332 0.166504 32.8124ZM30.4998 57.4583C31.789 57.4583 33.0529 57.3445 34.2915 57.117V47.2966L43.0654 35.0154C43.3547 34.6101 43.5613 34.1517 43.6735 33.6666C43.7857 33.1814 43.8012 32.6789 43.7192 32.1877C43.6371 31.6966 43.4591 31.2264 43.1954 30.804C42.9316 30.3816 42.5873 30.0153 42.182 29.726C41.7766 29.4367 41.3183 29.2301 40.8331 29.1179C40.348 29.0057 39.8455 28.9902 39.3543 29.0723C38.8631 29.1543 38.3929 29.3323 37.9706 29.596C37.5482 29.8598 37.1819 30.2041 36.8926 30.6095L30.0145 40.2403L25.5972 35.8192C24.8821 35.1285 23.9243 34.7463 22.9301 34.755C21.936 34.7636 20.985 35.1624 20.282 35.8654C19.579 36.5684 19.1802 37.5194 19.1716 38.5136C19.1629 39.5077 19.5451 40.4655 20.2358 41.1806L26.7082 47.653V57.1132C27.9468 57.3407 29.2107 57.4557 30.4998 57.4583Z" fill="#F4FFB4"/>
</svg>
