<svg width="53" height="42" viewBox="0 0 53 42" fill="none" xmlns="http://www.w3.org/2000/svg">
<path d="M25.3224 0.6C24.347 -0.15 23.022 -0.196875 21.9823 0.459375C20.9425 1.11563 20.4272 2.37188 20.6665 3.59063L21.559 8.14688C19.7739 8.99063 18.1637 10.0125 16.7375 11.1C15.3297 12.1781 14.0691 13.3406 12.9925 14.5031L4.42602 9.4125C3.27585 8.72812 1.81283 8.91562 0.874283 9.87187C-0.0642582 10.8281 -0.27589 12.3094 0.38661 13.4906L4.60085 21L0.38661 28.5094C-0.27589 29.6906 -0.0734596 31.1719 0.874283 32.1281C1.82203 33.0844 3.27585 33.2719 4.42602 32.5875L12.9925 27.4969C14.0783 28.65 15.3297 29.8219 16.7375 30.9C18.1637 31.9875 19.7739 33.0094 21.559 33.8531L20.6665 38.4094C20.4272 39.6281 20.9517 40.875 21.9823 41.5312C23.0128 42.1875 24.3378 42.1406 25.3224 41.3906L32.4627 35.9344C37.5142 35.5594 41.8021 33.4031 45.087 30.8906C48.6939 28.1344 51.2703 24.825 52.5953 22.5C53.129 21.5719 53.129 20.4187 52.5953 19.4906C51.2703 17.1656 48.6847 13.8562 45.087 11.1C41.7929 8.5875 37.5142 6.43125 32.4627 6.05625L25.3224 0.6ZM35.3335 21C35.3335 20.2043 35.6437 19.4413 36.1959 18.8787C36.7481 18.3161 37.497 18 38.2779 18C39.0588 18 39.8078 18.3161 40.36 18.8787C40.9122 19.4413 41.2224 20.2043 41.2224 21C41.2224 21.7957 40.9122 22.5587 40.36 23.1213C39.8078 23.6839 39.0588 24 38.2779 24C37.497 24 36.7481 23.6839 36.1959 23.1213C35.6437 22.5587 35.3335 21.7957 35.3335 21Z" fill="#20402F"/>
</svg>
