<svg width="57" height="67" viewBox="0 0 57 67" fill="none" xmlns="http://www.w3.org/2000/svg">
<path d="M22.7915 66.875V51.0775C21.0486 51.7079 19.1944 52.0417 17.229 52.0417C7.95817 52.0417 0.541504 44.625 0.541504 35.3542C0.541504 30.6446 2.39567 26.4171 5.58484 23.3763C4.73192 21.3738 4.24984 19.1487 4.24984 16.8125C4.24984 7.54167 11.6665 0.125 20.9373 0.125C26.7223 0.125 31.8398 3.09167 34.8436 7.54167H35.7707C38.4491 7.54167 41.1013 8.06922 43.5758 9.09421C46.0504 10.1192 48.2988 11.6215 50.1927 13.5155C52.0866 15.4094 53.589 17.6578 54.614 20.1324C55.6389 22.6069 56.1665 25.2591 56.1665 27.9375C56.1665 30.6159 55.6389 33.2681 54.614 35.7426C53.589 38.2172 52.0866 40.4656 50.1927 42.3595C48.2988 44.2535 46.0504 45.7558 43.5758 46.7808C41.1013 47.8058 38.4491 48.3333 35.7707 48.3333C33.9165 48.3333 32.0623 48.0737 30.2082 47.5546V66.875H22.7915Z" fill="#F4FFB4"/>
</svg>
