<svg width="75" height="72" viewBox="0 0 75 72" fill="none" xmlns="http://www.w3.org/2000/svg">
<path d="M26.9012 13.29C26.674 12.5877 26.387 11.9062 26.0432 11.253C24.9422 9.16203 23.2172 7.26303 21.0422 6.20403C20.7765 6.07461 20.4879 5.9988 20.1928 5.98093C19.8978 5.96305 19.6021 6.00346 19.3227 6.09985C19.0433 6.19623 18.7856 6.34671 18.5644 6.54269C18.3431 6.73866 18.1626 6.9763 18.0332 7.24203C17.9038 7.50776 17.828 7.79638 17.8101 8.09141C17.7922 8.38644 17.8326 8.6821 17.929 8.96151C18.0254 9.24092 18.1759 9.49861 18.3719 9.71987C18.5678 9.94112 18.8055 10.1216 19.0712 10.251C20.2172 10.806 21.3092 11.922 22.0622 13.35C22.2622 13.738 22.4322 14.128 22.5722 14.52C20.8618 14.0685 19.0768 13.9735 17.3282 14.241C15.4873 14.5184 13.7279 15.19 12.1705 16.21C10.613 17.23 9.29421 18.5743 8.30421 20.151C7.98595 20.6559 7.88127 21.2665 8.0132 21.8485C8.14513 22.4305 8.50287 22.9363 9.00771 23.2545C9.51255 23.5728 10.1231 23.6775 10.7052 23.5455C11.2872 23.4136 11.7929 23.0559 12.1112 22.551C12.7568 21.5206 13.6176 20.642 14.6346 19.9756C15.6516 19.3091 16.8008 18.8706 18.0032 18.69C19.7736 18.4176 21.5848 18.7182 23.1722 19.548C19.9743 21.2042 17.3995 23.8526 15.8342 27.096C15.7054 27.362 15.6302 27.6507 15.6129 27.9456C15.5957 28.2406 15.6367 28.5361 15.7336 28.8153C15.8306 29.0944 15.9816 29.3517 16.1779 29.5725C16.3743 29.7933 16.6123 29.9732 16.8782 30.102C17.1441 30.2309 17.4328 30.306 17.7278 30.3233C18.0228 30.3406 18.3183 30.2995 18.5974 30.2026C18.8766 30.1057 19.1339 29.9547 19.3547 29.7583C19.5754 29.5619 19.7554 29.324 19.8842 29.058C21.1377 26.4539 23.2806 24.3834 25.9262 23.22C27.0962 26.091 28.0562 28.875 28.6652 32.073C29.4392 36.138 29.6582 40.965 28.8692 47.523C21.672 49.0834 15.1786 52.9451 10.3712 58.524C10.0896 58.8503 9.90768 59.2506 9.84701 59.6773C9.78635 60.1041 9.84952 60.5392 10.029 60.931C10.2085 61.3229 10.4968 61.6549 10.8595 61.8877C11.2222 62.1205 11.6442 62.2441 12.0752 62.244H60.0752C60.5062 62.2441 60.9282 62.1205 61.2909 61.8877C61.6537 61.6549 61.9419 61.3229 62.1214 60.931C62.3009 60.5392 62.3641 60.1041 62.3034 59.6773C62.2427 59.2506 62.0608 58.8503 61.7792 58.524C58.3074 54.4948 53.9363 51.3389 49.0192 49.3116C44.1021 47.2843 38.7769 46.4424 33.4742 46.854C34.1432 40.512 33.9092 35.559 33.0842 31.23C32.4542 27.906 31.4792 25.002 30.3632 22.194C32.9604 22.0926 35.5214 22.8289 37.6682 24.294C37.9129 24.4601 38.1878 24.5763 38.4774 24.6361C38.767 24.6959 39.0655 24.6981 39.3559 24.6425C39.6463 24.5869 39.9229 24.4747 40.17 24.3122C40.417 24.1497 40.6297 23.9402 40.7957 23.6955C40.9618 23.4509 41.078 23.1759 41.1378 22.8863C41.1976 22.5968 41.1998 22.2982 41.1442 22.0078C41.0886 21.7174 40.9764 21.4408 40.8139 21.1937C40.6514 20.9467 40.4419 20.7341 40.1972 20.568C36.9545 18.3625 33.0374 17.3723 29.1362 17.772C30.0062 16.302 31.3322 15.087 33.0152 14.352C34.1281 13.8632 35.3335 13.6209 36.5488 13.6416C37.7642 13.6623 38.9606 13.9456 40.0562 14.472C40.5873 14.69 41.1817 14.6966 41.7176 14.4907C42.2535 14.2847 42.6903 13.8817 42.9388 13.3641C43.1872 12.8465 43.2284 12.2536 43.0539 11.7066C42.8794 11.1597 42.5025 10.7001 42.0002 10.422C40.3217 9.61553 38.4888 9.18111 36.6269 9.14849C34.7649 9.11587 32.9179 9.48582 31.2122 10.233C29.5794 10.9445 28.1115 11.9864 26.9012 13.293M54.5222 57.753H17.6312C22.8549 53.5417 29.3653 51.2501 36.0752 51.261C42.7853 51.251 49.2961 53.5442 54.5222 57.753Z" fill="#F4FFB4"/>
<path d="M54.0752 22.5C51.8872 22.5 49.7887 23.3692 48.2416 24.9164C46.6944 26.4635 45.8252 28.562 45.8252 30.75C45.8252 32.938 46.6944 35.0365 48.2416 36.5836C49.7887 38.1308 51.8872 39 54.0752 39C56.2632 39 58.3617 38.1308 59.9088 36.5836C61.456 35.0365 62.3252 32.938 62.3252 30.75C62.3252 28.562 61.456 26.4635 59.9088 24.9164C58.3617 23.3692 56.2632 22.5 54.0752 22.5ZM50.3252 30.75C50.3252 29.7554 50.7203 28.8016 51.4235 28.0983C52.1268 27.3951 53.0806 27 54.0752 27C55.0698 27 56.0236 27.3951 56.7268 28.0983C57.4301 28.8016 57.8252 29.7554 57.8252 30.75C57.8252 31.7446 57.4301 32.6984 56.7268 33.4017C56.0236 34.1049 55.0698 34.5 54.0752 34.5C53.0806 34.5 52.1268 34.1049 51.4235 33.4017C50.7203 32.6984 50.3252 31.7446 50.3252 30.75Z" fill="#F4FFB4"/>
</svg>
