<svg width="48" height="48" viewBox="0 0 48 48" fill="none" xmlns="http://www.w3.org/2000/svg">
<path d="M35.8 34.78C35.28 33.18 33.78 32 32 32H30V26C30 25.4696 29.7893 24.9609 29.4142 24.5858C29.0391 24.2107 28.5304 24 28 24H16V20H20C20.5304 20 21.0391 19.7893 21.4142 19.4142C21.7893 19.0391 22 18.5304 22 18V14H26C27.0609 14 28.0783 13.5786 28.8284 12.8284C29.5786 12.0783 30 11.0609 30 10V9.18C32.393 10.1447 34.5165 11.6749 36.1889 13.6397C37.8612 15.6044 39.0326 17.9451 39.6027 20.4614C40.1728 22.9777 40.1247 25.5947 39.4624 28.0884C38.8001 30.5821 37.5435 32.8781 35.8 34.78ZM22 39.86C14.1 38.88 8 32.16 8 24C8 22.76 8.16 21.56 8.42 20.42L18 30V32C18 33.0609 18.4214 34.0783 19.1716 34.8284C19.9217 35.5786 20.9391 36 22 36M24 4C21.3736 4 18.7728 4.51732 16.3463 5.52241C13.9198 6.5275 11.715 8.00069 9.85786 9.85786C6.10714 13.6086 4 18.6957 4 24C4 29.3043 6.10714 34.3914 9.85786 38.1421C11.715 39.9993 13.9198 41.4725 16.3463 42.4776C18.7728 43.4827 21.3736 44 24 44C29.3043 44 34.3914 41.8929 38.1421 38.1421C41.8929 34.3914 44 29.3043 44 24C44 21.3736 43.4827 18.7728 42.4776 16.3463C41.4725 13.9198 39.9993 11.715 38.1421 9.85786C36.285 8.00069 34.0802 6.5275 31.6537 5.52241C29.2272 4.51732 26.6264 4 24 4Z" fill="#1E402F"/>
</svg>
