<svg width="77" height="77" viewBox="0 0 77 77" fill="none" xmlns="http://www.w3.org/2000/svg">
<g clip-path="url(#clip0_1998_13)">
<path d="M58.3333 13C55.7951 13 53.3139 13.7527 51.2035 15.1628C49.0931 16.573 47.4482 18.5772 46.4769 20.9222C45.5056 23.2672 45.2514 25.8476 45.7466 28.337C46.2418 30.8264 47.464 33.1131 49.2588 34.9079C51.0536 36.7026 53.3403 37.9249 55.8297 38.4201C58.3191 38.9153 60.8994 38.6611 63.2444 37.6898C65.5894 36.7185 67.5937 35.0736 69.0039 32.9632C70.414 30.8527 71.1667 28.3715 71.1667 25.8333C71.1667 22.4297 69.8146 19.1655 67.4079 16.7588C65.0011 14.3521 61.7369 13 58.3333 13ZM58.3333 32.25C57.0642 32.25 55.8236 31.8737 54.7684 31.1686C53.7132 30.4635 52.8908 29.4614 52.4051 28.2889C51.9194 27.1164 51.7924 25.8262 52.04 24.5815C52.2875 23.3368 52.8987 22.1935 53.7961 21.2961C54.6935 20.3987 55.8368 19.7875 57.0815 19.54C58.3262 19.2924 59.6164 19.4194 60.7889 19.9051C61.9614 20.3908 62.9635 21.2132 63.6686 22.2684C64.3737 23.3236 64.75 24.5642 64.75 25.8333C64.75 27.5351 64.074 29.1672 62.8706 30.3706C61.6672 31.574 60.0351 32.25 58.3333 32.25ZM48.7083 70.75H42.2917V64.3333C42.2917 63.4824 41.9536 62.6664 41.352 62.0647C40.7503 61.463 39.9342 61.125 39.0833 61.125C38.2324 61.125 37.4164 61.463 36.8147 62.0647C36.213 62.6664 35.875 63.4824 35.875 64.3333V70.75H29.4583V59.9058L40.5271 54.3554C41.0562 54.0888 41.5011 53.6809 41.8126 53.1769C42.1241 52.6729 42.2899 52.0925 42.2917 51.5V38.6667C42.2917 37.8158 41.9536 36.9997 41.352 36.398C40.7503 35.7964 39.9342 35.4583 39.0833 35.4583C38.2324 35.4583 37.4164 35.7964 36.8147 36.398C36.213 36.9997 35.875 37.8158 35.875 38.6667V49.5108L29.4583 52.7192V32.25C29.4583 31.3991 29.1203 30.583 28.5186 29.9814C27.917 29.3797 27.1009 29.0417 26.25 29.0417C25.3991 29.0417 24.583 29.3797 23.9814 29.9814C23.3797 30.583 23.0417 31.3991 23.0417 32.25V59.1358L16.625 55.9275V48.2917C16.625 47.4408 16.287 46.6247 15.6853 46.023C15.0836 45.4214 14.2676 45.0833 13.4167 45.0833C12.5658 45.0833 11.7497 45.4214 11.148 46.023C10.5464 46.6247 10.2083 47.4408 10.2083 48.2917V57.9167C10.2101 58.5091 10.3759 59.0895 10.6874 59.5935C10.9989 60.0976 11.4438 60.5055 11.9729 60.7721L23.0417 66.3225V70.75H10.2083C9.35743 70.75 8.54138 71.088 7.9397 71.6897C7.33802 72.2914 7 73.1074 7 73.9583C7 74.8092 7.33802 75.6253 7.9397 76.227C8.54138 76.8286 9.35743 77.1667 10.2083 77.1667H48.7083C49.5592 77.1667 50.3753 76.8286 50.977 76.227C51.5786 75.6253 51.9167 74.8092 51.9167 73.9583C51.9167 73.1074 51.5786 72.2914 50.977 71.6897C50.3753 71.088 49.5592 70.75 48.7083 70.75Z" fill="#F4FFB4"/>
</g>
<defs>
<clipPath id="clip0_1998_13">
<rect width="77" height="77" fill="white"/>
</clipPath>
</defs>
</svg>
