<svg width="48" height="48" viewBox="0 0 48 48" fill="none" xmlns="http://www.w3.org/2000/svg">
<path fill-rule="evenodd" clip-rule="evenodd" d="M26.2706 2.57647C27.7239 1.12357 29.6948 0.307373 31.7498 0.307373C33.8048 0.307373 35.7757 1.12357 37.2291 2.57647L45.4234 10.7708C46.8763 12.2241 47.6925 14.195 47.6925 16.2501C47.6925 18.3051 46.8763 20.276 45.4234 21.7293L21.7291 45.4236C20.2757 46.8765 18.3048 47.6927 16.2498 47.6927C14.1948 47.6927 12.2239 46.8765 10.7706 45.4236L2.57622 37.2267C1.12332 35.7734 0.307129 33.8025 0.307129 31.7475C0.307129 29.6924 1.12332 27.7216 2.57622 26.2682L4.84697 24L9.25672 28.4098C9.74395 28.8804 10.3965 29.1408 11.0738 29.1349C11.7512 29.129 12.3991 28.8573 12.8781 28.3783C13.3571 27.8994 13.6287 27.2514 13.6346 26.5741C13.6405 25.8967 13.3801 25.2442 12.9096 24.757L8.49981 20.3472L12.597 16.2501L19.5901 23.2431C20.0773 23.7137 20.7298 23.9741 21.4072 23.9682C22.0845 23.9623 22.7324 23.6906 23.2114 23.2117C23.6904 22.7327 23.9621 22.0848 23.968 21.4074C23.9738 20.7301 23.7135 20.0775 23.2429 19.5903L16.2498 12.5972L20.347 8.50005L24.7567 12.9098C24.995 13.1565 25.2801 13.3533 25.5953 13.4887C25.9104 13.6241 26.2494 13.6954 26.5924 13.6984C26.9355 13.7013 27.2756 13.636 27.5931 13.5061C27.9106 13.3762 28.199 13.1844 28.4416 12.9418C28.6841 12.6993 28.876 12.4108 29.0058 12.0933C29.1357 11.7759 29.2011 11.4357 29.1981 11.0927C29.1951 10.7497 29.1239 10.4107 28.9885 10.0955C28.8531 9.78033 28.6563 9.49527 28.4096 9.25697L23.9998 4.84722L26.2706 2.57647Z" fill="#F4FFB4"/>
</svg>
