<svg width="54" height="54" viewBox="0 0 54 54" fill="none" xmlns="http://www.w3.org/2000/svg">
<path d="M14.625 45C11.2125 45 8.29725 43.8187 5.87925 41.4562C3.46125 39.0937 2.2515 36.2062 2.25 32.7937C2.25 29.8687 3.13125 27.2625 4.89375 24.975C6.65625 22.6875 8.9625 21.225 11.8125 20.5875C12.75 17.1375 14.625 14.3438 17.4375 12.2063C20.25 10.0688 23.4375 9 27 9C31.3875 9 35.1098 10.5285 38.1668 13.5855C41.2238 16.6425 42.7515 20.364 42.75 24.75C45.3375 25.05 47.4848 26.166 49.1918 28.098C50.8988 30.03 51.7515 32.289 51.75 34.875C51.75 37.6875 50.766 40.0785 48.798 42.048C46.83 44.0175 44.439 45.0015 41.625 45H14.625ZM14.625 40.5H41.625C43.2 40.5 44.5313 39.9562 45.6188 38.8687C46.7063 37.7812 47.25 36.45 47.25 34.875C47.25 33.3 46.7063 31.9688 45.6188 30.8813C44.5313 29.7938 43.2 29.25 41.625 29.25H38.25V24.75C38.25 21.6375 37.1528 18.984 34.9583 16.7895C32.7638 14.595 30.111 13.4985 27 13.5C23.889 13.5015 21.2363 14.5987 19.0418 16.7917C16.8473 18.9847 15.75 21.6375 15.75 24.75H14.625C12.45 24.75 10.5938 25.5187 9.05625 27.0562C7.51875 28.5938 6.75 30.45 6.75 32.625C6.75 34.8 7.51875 36.6562 9.05625 38.1938C10.5938 39.7313 12.45 40.5 14.625 40.5Z" fill="#1E402F"/>
</svg>
